<svg xmlns="http://www.w3.org/2000/svg" width="432.64" height="467.14" viewBox="0 0 432.64 467.14"><defs><style>.cls-1{fill:#8fb58d;}.cls-2{fill:#000d26;}.cls-3{fill:#022772;}.cls-4{fill:#093da5;}.cls-5{fill:#fff;}.cls-6{fill:none;}.cls-7{fill:#113b70;}.cls-8{fill:#9ea8da;}</style></defs><g id="Layer_3" data-name="Layer 3"><polygon class="cls-1" points="234.77 36.64 234.77 70.52 215.13 106.21 195.49 70.52 195.49 36.64 215.13 34.09 234.77 36.64"/><path class="cls-2" d="M399.64,228.42a184.55,184.55,0,0,0-164.87-180,187.76,187.76,0,0,0-39.28,0q-4.56.48-9.05,1.19a183.9,183.9,0,0,0-94.37,44.8q-3.81,3.41-7.43,7l0,0-.18.19a183.88,183.88,0,0,0-53.8,126.78c0,1.16,0,2.32,0,3.49a184.55,184.55,0,0,0,369.1,0C399.68,230.74,399.67,229.58,399.64,228.42ZM340.41,357.63,242.78,260a39.26,39.26,0,0,0,11.77-28.09c0-1.18-.05-2.34-.15-3.49H392.58c0,1.16,0,2.32,0,3.49A176.94,176.94,0,0,1,340.41,357.63Z"/><polygon class="cls-3" points="349.14 366.36 308.4 401.08 254.55 419.73 215.13 422.74 215.13 232.35 242.78 260 340.41 357.63 345.4 362.62 349.14 366.36"/><polygon class="cls-3" points="215.13 41.33 215.13 232.35 84.41 101.63 118.9 69.01 215.13 41.33"/><path class="cls-4" d="M263.12,376.84a8.85,8.85,0,0,0-4.36,5.88.37.37,0,0,1-.68.1L222.8,319.29a.37.37,0,0,1,.44-.53,8.88,8.88,0,0,0,11.76-7,.36.36,0,0,1,.51-.29,8.89,8.89,0,0,0,12.27-6.7.37.37,0,0,1,.51-.28,8.9,8.9,0,0,0,12.14-6.7c.24,0,.47.08.69.13l35.4,63.75a.36.36,0,0,1-.46.51A8.9,8.9,0,0,0,284.12,369a.37.37,0,0,1-.51.28,8.9,8.9,0,0,0-12.17,6.88.36.36,0,0,1-.51.28A8.9,8.9,0,0,0,263.12,376.84Z"/><path class="cls-4" d="M175,165.74a8.86,8.86,0,0,0-4.36,5.87.37.37,0,0,1-.68.1l-35.28-63.53a.37.37,0,0,1,.44-.53,8.86,8.86,0,0,0,11.76-7,.36.36,0,0,1,.51-.28,8.9,8.9,0,0,0,12.27-6.7.36.36,0,0,1,.51-.28,8.9,8.9,0,0,0,12.14-6.7q.36,0,.69.12l35.4,63.75a.37.37,0,0,1-.46.52A8.89,8.89,0,0,0,196,157.9a.37.37,0,0,1-.51.28,8.89,8.89,0,0,0-12.17,6.87.35.35,0,0,1-.51.28A8.86,8.86,0,0,0,175,165.74Z"/><polygon class="cls-3" points="81.81 362.43 47.09 321.69 28.44 267.84 25.43 228.42 215.82 228.42 81.81 362.43"/><polygon class="cls-3" points="406.83 228.42 215.81 228.42 241.56 202.67 339.23 105 344.22 100.01 346.53 97.7 379.15 132.19 406.83 228.42"/><path class="cls-5" d="M161.71,106l-.81.38.92,2-1.75.82-.92-2-2.29,1.08L155.79,106l6.75-3.17,2.05,4.36-1.8,1.1Z"/><path class="cls-5" d="M161.43,117.5h-.22l-1.11-2.37,1.54-2.42,0-.11-2.19,1-1.06-2.26,6.74-3.16,1.3,2.76c.89,1.9.53,3.17-1,3.89a2.14,2.14,0,0,1-2.33-.17Zm2.93-6.18-1.19.56.21.46c.22.48.56.61.94.43s.47-.53.25-1Z"/><path class="cls-5" d="M168.2,114.85l1.06,2.26-6.75,3.16L161.45,118Z"/><path class="cls-5" d="M165.45,119.94l1.35-.63,1.29,2.74-1.35.64Z"/><path class="cls-5" d="M164.6,124.74l6.75-3.17,1.26,2.69c.81,1.72.49,2.82-.59,3.34a1.65,1.65,0,0,1-2-.44h0a1.71,1.71,0,0,1-1,2.12c-1.21.57-2.31.05-3.19-1.83Zm2.79,1.44.16.36c.23.48.54.62.89.45s.43-.48.2-1l-.16-.36Zm2.41-1.13.14.31c.19.4.44.5.74.36s.4-.4.21-.81l-.15-.3Z"/><path class="cls-5" d="M174.27,127.78l1.06,2.26-6.75,3.17L167.52,131Z"/><path class="cls-5" d="M175.82,131.09l1.06,2.26-4.75,2.23,1.19,2.53-2.11.69-2.14-4.54Z"/><path class="cls-5" d="M178.41,136.6l1.06,2.26-4.75,2.23,1.19,2.53-2.12.69-2.13-4.54Z"/><path class="cls-5" d="M178,146.28l-.77.36,1.12,2.4-2,.69-2.09-4.45,6.75-3.17,2.09,4.45-1.8,1.09-1.12-2.39-.72.33,1,2.06-1.47.69Z"/><path class="cls-5" d="M186,152.78l-2.09,1-.78-1.65-4.65,2.18-1.06-2.25,4.66-2.18-.78-1.65,2.1-1Z"/><path class="cls-5" d="M271.4,364.07l.81-.38-.93-2,1.75-.82.92,2,2.3-1.08,1.07,2.26-6.76,3.17-2.05-4.36,1.8-1.1Z"/><path class="cls-5" d="M271.67,352.5h.22l1.12,2.37-1.55,2.43.05.1,2.2-1,1.06,2.26L268,361.8l-1.3-2.77c-.89-1.9-.53-3.18,1-3.9a2.14,2.14,0,0,1,2.34.18Zm-2.93,6.18,1.19-.56-.21-.46c-.23-.47-.56-.61-.94-.43s-.47.54-.25,1Z"/><path class="cls-5" d="M264.89,355.15l-1.06-2.26,6.76-3.17,1.06,2.26Z"/><path class="cls-5" d="M267.65,350.05l-1.36.63L265,347.93l1.36-.63Z"/><path class="cls-5" d="M268.49,345.25l-6.76,3.17-1.26-2.7c-.81-1.72-.49-2.83.6-3.34a1.62,1.62,0,0,1,2,.44l0,0a1.72,1.72,0,0,1,.95-2.12c1.21-.57,2.31-.05,3.19,1.83Zm-5.2-.32-.15-.31c-.19-.4-.43-.5-.74-.36s-.39.4-.2.81l.14.3Zm2.41-1.14-.16-.35c-.23-.49-.54-.62-.89-.45s-.43.47-.2,1l.16.35Z"/><path class="cls-5" d="M258.81,342.19l-1.06-2.26,6.76-3.17,1.06,2.26Z"/><path class="cls-5" d="M257.26,338.88l-1.07-2.26,4.76-2.24-1.19-2.53,2.12-.7L264,335.7Z"/><path class="cls-5" d="M254.67,333.36l-1.07-2.27,4.76-2.23-1.2-2.53,2.13-.7,2.13,4.56Z"/><path class="cls-5" d="M255.1,323.66l.77-.36-1.12-2.4,2-.69,2.09,4.46-6.75,3.17-2.1-4.46,1.81-1.09,1.12,2.39.72-.33-1-2.06,1.47-.69Z"/><path class="cls-5" d="M247.06,317.14l2.1-1,.77,1.65,4.66-2.19,1.06,2.26L251,320.06l.77,1.65-2.1,1Z"/><path class="cls-1" d="M262.91,133.71c.15-2,.21-7.59.24-11.67a23.84,23.84,0,0,1,1.75-8.83l4-9.84h0a1,1,0,0,0,0-.69,1,1,0,0,0,.5-.49c.37-.91-.94-2.29-2.91-3.1s-3.88-.72-4.25.19a1.05,1.05,0,0,0,0,.7,1,1,0,0,0-.49.49h0l-3.38,8.3A32.4,32.4,0,0,1,251.74,119c-2.66,2.77-5.77,6.06-6.87,7.39-2.06,2.47-11.62,24.38-11.45,25.61l7.8,3.17,4.22,1.72,7.81,3.17C254.22,159.29,262.65,136.92,262.91,133.71Z"/><polyline class="cls-6" points="253.25 160.05 245.44 156.88 241.22 155.16 233.42 151.99"/><path class="cls-5" d="M236.33,140l.21-1.08,3.85-2c.68-.36,1-.65,1.11-.95s0-.54-.4-.72a3.39,3.39,0,0,0-2.2,0l-.09,0,.51-2.51a7.56,7.56,0,0,1,3.2.38c1.85.75,2.39,2.2,1.79,3.68A3.81,3.81,0,0,1,242,139l-.12,0a6.66,6.66,0,0,1-1.21.28v.05a6.06,6.06,0,0,1,1.69.35l.67.27L242,142.3Z"/><path class="cls-5" d="M255.51,139.51a4.36,4.36,0,0,1,.11,3.73,4.46,4.46,0,0,1-6,2.39,5,5,0,0,1-1.94-1.37l-.92.56-1.16-.47,1.52-.93a4.3,4.3,0,0,1-.14-3.7,4.41,4.41,0,0,1,6-2.4,5.22,5.22,0,0,1,2,1.36l.91-.54,1.15.46Zm-6,2.43,3-1.84a1.6,1.6,0,0,0-.59-.39,1.74,1.74,0,0,0-2.31,1.12A2.2,2.2,0,0,0,249.55,141.94Zm3.33.18A2.13,2.13,0,0,0,253,141l-3,1.84a1.56,1.56,0,0,0,.58.39A1.77,1.77,0,0,0,252.88,142.12Z"/><path class="cls-5" d="M258.23,139.71l2.63,1.07-2.25,5.53,3,1.21-1.24,2.21-5.3-2.15Z"/><path class="cls-1" d="M166.81,320.1c-.15,2-.21,7.59-.24,11.66a23.6,23.6,0,0,1-1.75,8.83l-4,9.84h0a1,1,0,0,0,0,.69,1,1,0,0,0-.5.5c-.36.9.94,2.29,2.92,3.09s3.87.72,4.24-.19a1,1,0,0,0,0-.69,1.1,1.1,0,0,0,.5-.5h0l3.37-8.3A32.51,32.51,0,0,1,178,334.81c2.66-2.77,5.77-6.06,6.87-7.38,2.06-2.48,11.63-24.39,11.45-25.62l-7.8-3.17-4.22-1.71-7.81-3.18C175.5,294.52,167.07,316.89,166.81,320.1Z"/><polyline class="cls-6" points="176.47 293.75 184.28 296.93 188.5 298.64 196.3 301.81"/><path class="cls-5" d="M193.39,313.82l-.21,1.08-3.85,2c-.67.36-1,.65-1.11.95s0,.55.4.72a3.48,3.48,0,0,0,2.21,0l.09,0-.52,2.51a7.59,7.59,0,0,1-3.2-.38c-1.85-.75-2.39-2.2-1.79-3.68a3.79,3.79,0,0,1,2.36-2.27l.12,0a6.82,6.82,0,0,1,1.22-.28v-.05a5.73,5.73,0,0,1-1.7-.35l-.67-.27.93-2.28Z"/><path class="cls-5" d="M174.22,314.29a4.34,4.34,0,0,1-.12-3.72,4.46,4.46,0,0,1,6-2.4,5,5,0,0,1,1.94,1.37L183,309l1.15.47-1.51.92a4.36,4.36,0,0,1,.13,3.71,4.41,4.41,0,0,1-6,2.39,5.1,5.1,0,0,1-2-1.36l-.91.55-1.16-.47Zm2.62-2.61a2,2,0,0,0-.15,1.12l3-1.85a1.74,1.74,0,0,0-.58-.39A1.77,1.77,0,0,0,176.84,311.68Zm3.33.18-3,1.84a1.69,1.69,0,0,0,.59.39A1.74,1.74,0,0,0,180,313,2.2,2.2,0,0,0,180.17,311.86Z"/><path class="cls-5" d="M171.49,314.09,168.86,313l2.25-5.53-3-1.2,1.24-2.22,5.3,2.15Z"/><path class="cls-5" d="M79,293.18l-3.6-7.68,2.68-1.26,2.35,1.49c.46.29,1,.63,1.89,1.35l0,0A14.81,14.81,0,0,1,81,284.84l-.76-1.63,2.56-1.2,3.61,7.69-2.51,1.17-2.53-1.52A18.22,18.22,0,0,1,79.44,288l0,0a15.33,15.33,0,0,1,1.4,2.33l.76,1.61Z"/><path class="cls-5" d="M84,281.45l2.57-1.21,3.61,7.69-2.57,1.2Z"/><path class="cls-5" d="M93.61,276.94l1.12,2.39-1.88.88,2.49,5.3-2.56,1.2-2.49-5.3-1.88.89-1.12-2.39Z"/><path class="cls-5" d="M100.37,273.77l1.12,2.39-1.88.88,2.49,5.3-2.57,1.2-2.48-5.3-1.88.88-1.12-2.38Z"/><path class="cls-5" d="M105.83,276.88l.41.88,2.73-1.28.78,2.27-5.07,2.37-3.6-7.68,5.07-2.38,1.24,2.05-2.73,1.28.38.81,2.35-1.1.79,1.68Z"/><path class="cls-5" d="M111,278.15l-3.61-7.68,2.68-1.26,2.36,1.49c.45.29.94.63,1.88,1.35l0,0a13.84,13.84,0,0,1-1.33-2.22l-.77-1.63,2.56-1.2,3.61,7.69-2.5,1.17-2.54-1.52a18.38,18.38,0,0,1-1.93-1.33l0,0a15.5,15.5,0,0,1,1.41,2.33l.75,1.61Z"/><path class="cls-5" d="M119.39,267.78a1.45,1.45,0,0,1,2.63-1.23,1.45,1.45,0,0,1-2.63,1.23Zm1.54,3.27a1.45,1.45,0,0,1,2.62-1.23,1.45,1.45,0,0,1-2.62,1.23Z"/><path class="cls-5" d="M127.63,272a9.6,9.6,0,0,1-4.82-10.27l1.9-.89a9.3,9.3,0,0,0,4.82,10.27Z"/><path class="cls-5" d="M72.85,171.45l1-3.25a8.94,8.94,0,0,1,.85-1.78l0,0a6.14,6.14,0,0,1-1.14.35l-.85.17-.18-.16,1-2.5,3.74-.46.92.28-2.6,8.24Z"/><path class="cls-5" d="M78,168.63c.84-2.66,2.69-3.86,4.88-3.17s3,2.74,2.17,5.39-2.69,3.86-4.87,3.17S77.17,171.28,78,168.63ZM82.27,170c.39-1.24.31-1.86-.18-2s-.91.3-1.31,1.55-.31,1.86.18,2S81.88,171.22,82.27,170Z"/><path class="cls-5" d="M86.73,169.2a2.34,2.34,0,1,1,1.54,2.91A2.27,2.27,0,0,1,86.73,169.2Zm.08,6.66,7.27-6.61,1.52.48-7.27,6.61Zm2.8-5.77a.67.67,0,0,0-.43-.88.66.66,0,0,0-.85.48.65.65,0,0,0,.43.87A.66.66,0,0,0,89.61,170.09ZM91.2,175a2.34,2.34,0,1,1,1.54,2.91A2.28,2.28,0,0,1,91.2,175Zm2.88.89a.66.66,0,0,0-.43-.87.67.67,0,0,0-.86.47.66.66,0,0,0,.43.87A.67.67,0,0,0,94.08,175.9Z"/><path class="cls-5" d="M106.37,181.8l-.16.18-2.85-.9-.84-3.15-.12,0-.83,2.63-2.71-.86,2.55-8.1,3.32,1.05c2.28.72,3.07,2,2.48,3.85a2.45,2.45,0,0,1-1.94,1.82Zm-2.91-7.23L103,176l.55.18c.58.18.94,0,1.09-.45s-.09-.81-.63-1Z"/><path class="cls-5" d="M114.59,175.72l0,8.85-.07.05-3-1,.09-1.13-2-.65-.57,1-3-.94,0-.09,5.17-7.19Zm-4,4.51,1.23.39,0-.53a26,26,0,0,1,.35-2.75l0,0c-.43,1-1,2-1.31,2.47Z"/><path class="cls-5" d="M115.22,184.83l2.56-8.1,3.22,1c2.07.65,2.75,1.77,2.34,3.08a1.85,1.85,0,0,1-1.88,1.3l0,.05a2,2,0,0,1,1,2.43c-.46,1.45-1.74,2-4,1.25Zm3.37-1.22.42.14c.58.18.93,0,1.07-.4s-.08-.72-.66-.91l-.42-.13Zm.91-2.89.37.11c.48.16.75,0,.87-.34s0-.64-.52-.79l-.36-.11Z"/><path class="cls-5" d="M130.52,180.75l0,8.85-.08.05-3-1,.09-1.13-2-.65-.57,1-3-.94,0-.09,5.17-7.19Zm-4,4.51,1.23.39,0-.53a25.66,25.66,0,0,1,.35-2.75l0,0c-.43,1-1,2-1.31,2.47Z"/><path class="cls-5" d="M138.93,183.41l-.79,2.51-2-.62-1.76,5.58-2.7-.85,1.76-5.58-2-.63.8-2.51Z"/><path class="cls-5" d="M71.57,180.44c-.56,1.77-1.91,2.5-3.94,1.86L66.7,182,66,184.37l-2.71-.85,2.55-8.1,3.32,1.05C71.39,177.19,72.17,178.53,71.57,180.44Zm-3.63-.29c.57.18.94,0,1.1-.52s-.05-.91-.62-1.09l-.57-.18-.51,1.6Z"/><path class="cls-5" d="M78,179.28l0,8.84-.08,0-3-.95.1-1.13-2-.64-.57,1-3-.94,0-.08,5.17-7.2Zm-4,4.51,1.23.39,0-.53a23.68,23.68,0,0,1,.35-2.76h0a27.67,27.67,0,0,1-1.3,2.46Zm1.55-7.26a1.39,1.39,0,0,1,2.65.84,1.39,1.39,0,0,1-2.65-.84Zm.7.22a.65.65,0,0,0,.43.83.66.66,0,0,0,.83-.43.66.66,0,1,0-1.26-.4Z"/><path class="cls-5" d="M89.21,182.82l.06,8.84-.08.05-3-1,.09-1.13L84.21,189l-.57,1-3-.94,0-.09,5.18-7.19Zm-4,4.51,1.22.38,0-.53a26,26,0,0,1,.35-2.75l0,0c-.43,1-1,2-1.31,2.47Zm1.54-7.26a1.39,1.39,0,1,1,.92,1.73A1.38,1.38,0,0,1,86.72,180.07Zm.7.22a.66.66,0,1,0,1.26.39.66.66,0,0,0-1.26-.39Z"/><path class="cls-5" d="M97.36,194.05l-.16.19-2.85-.9-.84-3.16-.13,0-.83,2.63-2.71-.85,2.56-8.1,3.32,1.05c2.27.72,3.06,2,2.48,3.85a2.44,2.44,0,0,1-2,1.81Zm-2.92-7.22L94,188.26l.55.17c.57.18.94,0,1.08-.45s-.08-.8-.63-1Z"/><path class="cls-5" d="M97.62,193.92l1.12-2.24.09,0a4.42,4.42,0,0,0,2,1.48c.53.16.77.13.83-.08s-.08-.42-1.23-1.4-1.59-1.94-1.19-3.21c.46-1.44,2-2.15,4.07-1.48a6.24,6.24,0,0,1,2.34,1.36l-1.12,2.24-.09,0a4.19,4.19,0,0,0-1.9-1.35c-.37-.12-.51-.05-.56.1s0,.29,1.19,1.33,1.63,2.07,1.28,3.16c-.49,1.56-2.18,2.26-4.18,1.63A6.7,6.7,0,0,1,97.62,193.92Z"/><path class="cls-5" d="M111.33,193.48l1.41,5.58-.07.06-3.08-1-.72-3.14-.9.55-.6,1.89-2.71-.86,2.56-8.09,2.71.85-.35,1.1c-.16.53-.49,1.36-.76,2h0a10.44,10.44,0,0,1,1.25-1.09l2-1.33,3.08,1,0,.1Z"/><path class="cls-5" d="M113.5,194.93a4.68,4.68,0,1,1,3.12,5.69A4.43,4.43,0,0,1,113.5,194.93Zm6.1,1.93a1.72,1.72,0,1,0-2.21,1.3A1.75,1.75,0,0,0,119.6,196.86Z"/><path class="cls-5" d="M129.7,204.26l-.16.19-2.85-.9-.84-3.16-.13,0-.83,2.63-2.71-.86,2.56-8.09,3.31,1c2.28.72,3.07,2,2.49,3.86a2.44,2.44,0,0,1-1.95,1.81ZM126.78,197l-.45,1.43.55.17c.57.18.94,0,1.08-.45s-.08-.81-.63-1Z"/><path class="cls-5" d="M138.62,198.41l-.8,2.51-2-.62-1.76,5.58-2.7-.85,1.76-5.58-2-.63.79-2.51Z"/><path class="cls-5" d="M285,206.46l-1.63-3a8.38,8.38,0,0,1-.7-1.85h-.05a5.66,5.66,0,0,1-.54,1.07l-.46.73-.24,0L280.25,201l2.26-3,.84-.46,4.15,7.58Z"/><path class="cls-5" d="M288.11,204.76l-.07,0,.45-5.13-4.32-2.24v-.1l2.92-1.6.83.53a14.91,14.91,0,0,1,1.45,1.11l0,0a17.06,17.06,0,0,1-.18-1.8l0-1,2.86-1.56.07.05-.41,4.79,4.54,2.44v.1l-3,1.62-.65-.46c-.56-.39-1-.71-1.73-1.27l0,0a15.54,15.54,0,0,1,.12,2.14v.84Z"/><path class="cls-7" d="M234.77,35.05q-9.69-.94-19.64-1-9.7,0-19.19.92l-.45.05c-100,9.85-178.17,94.22-178.17,196.85,0,109.25,88.56,197.81,197.81,197.81s197.81-88.56,197.81-197.81C412.94,129.29,334.8,44.91,234.77,35.05ZM37.68,228.42a177.48,177.48,0,0,1,354.9,0c0,1.16,0,2.32,0,3.49a177.49,177.49,0,0,1-355,0C37.64,230.74,37.65,229.58,37.68,228.42Z"/><path class="cls-2" d="M392.62,231.91a176.94,176.94,0,0,1-52.21,125.72L242.78,260a39.26,39.26,0,0,0,11.77-28.09c0-1.18-.05-2.34-.15-3.49H392.58C392.61,229.58,392.62,230.74,392.62,231.91Z"/><path class="cls-8" d="M234.53,231.9a19.4,19.4,0,1,1-38.79,0c0-.58,0-1.15.07-1.71a19.4,19.4,0,0,1,38.64,0C234.5,230.75,234.53,231.32,234.53,231.9Z"/><rect class="cls-4" x="299.78" y="166.69" width="57.16" height="33.13" rx="5.39" transform="translate(-46.75 156.88) rotate(-25.14)"/><path class="cls-5" d="M309.86,188.05l5.08,5.45,0,.08-2.41,1.13-.59-.75-1.64.77.21.93-2.38,1.11-.07,0-.9-7.41Zm-3.11-.28a1.17,1.17,0,1,1,1.55.55A1.16,1.16,0,0,1,306.75,187.77Zm3.18,5.38,1-.46-.27-.35a19.25,19.25,0,0,1-1.36-1.91l0,0c.27.83.5,1.83.6,2.27Zm-2.62-5.64a.55.55,0,1,0,.26-.74A.55.55,0,0,0,307.31,187.51Z"/><path class="cls-5" d="M321.32,190.36v.21l-2.27,1.07-2.33-1.48-.1.05,1,2.1-2.17,1-3-6.47,2.66-1.25c1.82-.85,3-.51,3.73,1a2,2,0,0,1-.17,2.23Zm-5.93-2.81.53,1.15.44-.21c.46-.21.59-.53.42-.9s-.51-.45-.95-.24Z"/><path class="cls-5" d="M321.4,190.13l-.58-2,.07,0a3.65,3.65,0,0,0,2.09-.23c.42-.2.54-.36.47-.52s-.29-.21-1.56-.16-2.1-.3-2.57-1.32,0-2.45,1.67-3.24a5.34,5.34,0,0,1,2.23-.49l.59,2-.08,0a3.53,3.53,0,0,0-2,.25c-.3.14-.34.26-.29.38s.16.19,1.5.14,2.19.36,2.6,1.23c.59,1.25-.06,2.65-1.67,3.4A5.5,5.5,0,0,1,321.4,190.13Z"/><path class="cls-5" d="M329.64,182l4.06,2.65v.08l-2.46,1.15L329,184.38l-.24.87.7,1.51-2.16,1-3-6.47,2.17-1,.41.88c.19.42.47,1.12.66,1.66h0a7.84,7.84,0,0,1,.16-1.39l.45-1.95,2.47-1.15.06,0Z"/><path class="cls-5" d="M331.81,181.7a3.95,3.95,0,1,1,5.18,1.74A3.73,3.73,0,0,1,331.81,181.7Zm4.88-2.29a1.46,1.46,0,1,0-2.62,1.23,1.46,1.46,0,1,0,2.62-1.23Z"/><path class="cls-5" d="M347.16,178.23v.21l-2.28,1.07L342.57,178l-.1.05,1,2.1-2.17,1-3-6.48,2.65-1.24c1.82-.85,3-.51,3.74,1a2.05,2.05,0,0,1-.17,2.23Zm-5.93-2.81.54,1.15.44-.21c.46-.21.59-.53.42-.9s-.52-.45-1-.24Z"/><path class="cls-5" d="M349.34,169.52l1,2-1.58.74,2.09,4.47-2.16,1-2.09-4.46L345,174l-1-2Z"/><path class="cls-5" d="M289.29,260.85l.12-1.1,3.67-2.32c.65-.41.94-.73,1-1s0-.55-.45-.69a3.44,3.44,0,0,0-2.2.2l-.09,0,.31-2.54a7.54,7.54,0,0,1,3.22.12c1.91.6,2.56,2,2.08,3.53a3.81,3.81,0,0,1-2.17,2.46l-.12.05a6.43,6.43,0,0,1-1.18.37v.05a5.65,5.65,0,0,1,1.72.22l.69.22-.74,2.34Z"/><path class="cls-5" d="M297.27,258.91c.84-2.65,2.69-3.85,4.87-3.16s3,2.73,2.18,5.39-2.69,3.85-4.88,3.16S296.43,261.57,297.27,258.91Zm4.27,1.35c.39-1.25.31-1.86-.18-2s-.91.3-1.31,1.55-.31,1.86.18,2S301.15,261.51,301.54,260.26Z"/><path class="cls-5" d="M306,259.48a2.34,2.34,0,1,1,1.54,2.91A2.27,2.27,0,0,1,306,259.48Zm.08,6.66,7.26-6.61,1.52.48-7.26,6.61Zm2.8-5.76a.67.67,0,0,0-.43-.88.66.66,0,0,0-.85.47.66.66,0,0,0,.42.88A.68.68,0,0,0,308.88,260.38Zm1.59,4.91A2.34,2.34,0,1,1,312,268.2,2.27,2.27,0,0,1,310.47,265.29Zm2.87.9a.67.67,0,1,0-.85.47A.66.66,0,0,0,313.34,266.19Z"/><path class="cls-5" d="M325.64,272.08l-.16.19-2.85-.9-.84-3.16-.12,0-.83,2.63-2.72-.85,2.56-8.1,3.32,1c2.27.72,3.06,2,2.48,3.85a2.44,2.44,0,0,1-1.94,1.81Zm-2.92-7.22-.45,1.43.55.17c.57.18.94,0,1.09-.45s-.09-.8-.64-1Z"/><path class="cls-5" d="M333.86,266l.05,8.85-.08.05-3-1,.1-1.13-2.05-.64-.57,1-3-.93,0-.09,5.17-7.2Zm-4,4.51,1.23.39,0-.53a23.68,23.68,0,0,1,.35-2.76h-.05c-.42.95-1,2-1.3,2.47Z"/><path class="cls-5" d="M334.49,275.11,337,267l3.23,1c2.07.66,2.75,1.78,2.34,3.08a1.85,1.85,0,0,1-1.89,1.3v0a2,2,0,0,1,1,2.43c-.46,1.45-1.74,2-4,1.26Zm3.36-1.21.43.13c.58.19.93,0,1.06-.39s-.07-.73-.65-.91l-.42-.14Zm.92-2.9.36.12c.48.15.76,0,.88-.34s0-.64-.52-.79l-.37-.12Z"/><path class="cls-5" d="M349.79,271l0,8.84-.08.05-3-.95.09-1.13-2-.64-.57,1-3-.94,0-.08,5.17-7.2Zm-4,4.51,1.23.38,0-.52a23.68,23.68,0,0,1,.35-2.76h-.05a27.67,27.67,0,0,1-1.3,2.46Z"/><path class="cls-5" d="M358.2,273.69l-.79,2.52-2-.63-1.76,5.59-2.7-.86,1.76-5.58-2-.62.79-2.52Z"/><path class="cls-5" d="M290.3,270.55c-.56,1.78-1.91,2.51-3.94,1.87l-.94-.3-.74,2.37-2.71-.86,2.55-8.09,3.32,1C290.12,267.3,290.9,268.64,290.3,270.55Zm-3.63-.29c.57.18.94,0,1.1-.51s0-.92-.62-1.1l-.57-.18-.51,1.61Z"/><path class="cls-5" d="M296.74,269.39l.05,8.85-.08.05-3-1,.1-1.13-2.05-.65-.57,1-3-.94,0-.09,5.17-7.19Zm-4,4.51,1.23.39,0-.53a23.3,23.3,0,0,1,.35-2.75l-.05,0c-.42.95-1,2-1.3,2.47Zm1.55-7.25a1.39,1.39,0,1,1,.91,1.73A1.37,1.37,0,0,1,294.25,266.65Zm.7.22a.64.64,0,0,0,.43.82.66.66,0,1,0-.43-.82Z"/><path class="cls-5" d="M307.94,272.93l.06,8.85-.08.05-3-1,.09-1.13-2.05-.64-.57,1-3-.93,0-.09,5.18-7.2Zm-4,4.51,1.22.39,0-.53a26.1,26.1,0,0,1,.35-2.76h0c-.43,1-1,2-1.31,2.47Zm1.54-7.26a1.38,1.38,0,0,1,1.75-.89,1.37,1.37,0,0,1,.91,1.73,1.39,1.39,0,0,1-2.66-.84Zm.7.22A.66.66,0,1,0,307,270,.65.65,0,0,0,306.15,270.4Z"/><path class="cls-5" d="M316.09,284.17l-.16.18-2.85-.9-.84-3.15-.13,0-.83,2.63-2.71-.86,2.56-8.09,3.32,1c2.27.72,3.06,2,2.48,3.85a2.45,2.45,0,0,1-1.95,1.82Zm-2.92-7.23-.45,1.43.55.18c.57.18.94,0,1.08-.45s-.08-.81-.63-1Z"/><path class="cls-5" d="M316.35,284l1.12-2.23.09,0a4.4,4.4,0,0,0,2,1.47c.53.17.76.13.83-.08s-.08-.41-1.23-1.39-1.59-1.95-1.19-3.22c.46-1.44,2-2.14,4.07-1.48a6.25,6.25,0,0,1,2.34,1.37l-1.12,2.24-.09,0a4.21,4.21,0,0,0-1.9-1.36c-.37-.12-.51-.05-.56.1s0,.3,1.19,1.34,1.62,2.07,1.28,3.15c-.49,1.57-2.18,2.27-4.19,1.64A6.72,6.72,0,0,1,316.35,284Z"/><path class="cls-5" d="M330.06,283.6l1.41,5.57-.07.07-3.08-1-.72-3.15-.9.56-.6,1.89-2.71-.86,2.56-8.1,2.71.86-.35,1.1c-.16.52-.49,1.35-.76,2l0,0a9.61,9.61,0,0,1,1.25-1.09l2-1.33,3.08,1,0,.09Z"/><path class="cls-5" d="M332.23,285.05a4.68,4.68,0,0,1,8.92,2.82,4.68,4.68,0,0,1-8.92-2.82Zm6.1,1.92a1.72,1.72,0,1,0-3.27-1,1.72,1.72,0,1,0,3.27,1Z"/><path class="cls-5" d="M348.43,294.37l-.16.19-2.85-.9-.84-3.16-.13,0-.83,2.64-2.71-.86,2.56-8.1,3.31,1.05c2.28.72,3.07,2,2.49,3.85a2.45,2.45,0,0,1-1.95,1.82Zm-2.92-7.22-.45,1.43.55.17c.57.19.94,0,1.08-.45s-.08-.8-.63-1Z"/><path class="cls-5" d="M357.34,288.52l-.79,2.52-2-.63L352.81,296l-2.7-.86,1.76-5.58-2-.62.79-2.52Z"/></g></svg>