<?xml version="1.0" encoding="utf-8"?>
<!-- Generator: Adobe Illustrator 25.4.1, SVG Export Plug-In . SVG Version: 6.00 Build 0)  -->
<svg version="1.1" id="Layer_1" xmlns="http://www.w3.org/2000/svg" xmlns:xlink="http://www.w3.org/1999/xlink" x="0px" y="0px"
	 viewBox="0 0 827.3 1080" style="enable-background:new 0 0 827.3 1080;" xml:space="preserve">
<style type="text/css">
	.st0{fill:#A8A8A8;}
</style>
<path class="st0" d="M789.9,623.7c-7.5-52.7-32.3-94.8-74.3-126.9c-28.8-22-61.5-34.4-97.4-40c-28-4.3-55.5-4-82.9,2.2
	c-31.7,7-61.2,21.5-86.2,42.2c-37.5,30.9-60.7,70.3-68,118.2c-6.3,41.2,0,81.2,15.8,119.7c5.7,13.8,12.2,27.2,19,42.1
	c-26.2-3.9-51.8-11.5-75.8-22.7C246.4,715.3,195.4,640.3,181.2,540c-7.1-50.7-2.4-101.3,13.3-150.5c12.7-39.6,32.1-75.6,60.3-106.1
	c45.8-49.7,102.9-77.5,169.9-86.1c65.1-8.4,126.7,1.8,185.1,31.6c17.1,8.7,33.6,18.6,51,28.2l69.7-120c-3.2-2.4-5.9-4.8-8.8-6.6
	c-67.6-41.6-140.4-66.7-220-72.1c-71.4-4.8-140.2,4.7-206.9,31.2c-76.1,30.2-138.8,77.7-187.3,143.5C56.6,302.3,30.2,380.6,24.7,466
	c-4.1,61.5,3.7,123.1,23,181.6c25,75.7,69.8,137.1,133.5,184.7c58.2,43.5,124.4,68.8,195.2,82.6c39.4,7.6,79.2,11.9,119.5,11.7
	c4.6,0.2,8.9,2.3,12,5.7c22.9,28,45.6,56.3,67.9,84.9c5.3,6.9,9,7.9,16.2,2.3c29.2-23,58.7-45.6,88.3-68c5.1-3.9,4.5-6.7,1.1-11
	c-9.9-12.4-19.5-25-29.2-37.5c-4.6-6-9.1-12.1-14-18.6c2.8-2,4.5-3.3,6.4-4.5c38.2-25.5,73.2-54.6,99.9-92.4
	C778.9,738.2,798.6,685.1,789.9,623.7z M584.8,761.9c-4,2.7-8.6,4.5-12.4,7.4c-7.4,5.6-10.7,2-14.9-4.6
	c-14.1-22.3-25.1-46-29.4-71.9c-6.3-38.9,3.6-79.8,42.6-96.7c6-2.6,13.1-2.9,19.6-4.2c32.8,0.8,54.3,26,55.2,61
	C646.6,700.8,623.9,736.1,584.8,761.9z"/>
</svg>
