<?xml version="1.0" encoding="utf-8"?>
<!-- Generator: Adobe Illustrator 25.4.1, SVG Export Plug-In . SVG Version: 6.00 Build 0)  -->
<svg version="1.1" id="Layer_1" xmlns="http://www.w3.org/2000/svg" xmlns:xlink="http://www.w3.org/1999/xlink" x="0px" y="0px"
	 viewBox="0 0 1920 602.9" style="enable-background:new 0 0 1920 602.9;" xml:space="preserve">
<style type="text/css">
	.st0{fill:#A8A8A8;}
</style>
<path class="st0" d="M188.7,83.4v325.7c8-6.4,13-9.8,17.2-13.8c104.8-100.5,209.8-201,314.7-301.4c6.9-6.5,18.3-10.9,27.9-11.4
	C575.7,81,603,82,635.6,82L412,298l247.5,208c-39.6,0-74.3,1.1-108.7-0.8c-8.4-0.5-16.8-10-24.4-16.3
	c-55.6-46.7-110.9-93.6-167.6-141.4c-47.5,45.5-95,89.3-140.3,135.3c-17.7,17.9-35.8,26.5-60.5,23.6c-12-1.4-24.2-0.2-38.2-0.2V83.4
	H188.7z"/>
<path class="st0" d="M1797.7,228.2c-3-63.9-36.8-111.8-100-132.2c-24.3-7.8-50.4-13-75.8-13.4c-98.4-1.5-196.9-0.7-295.3-0.6
	c-4.8,0-9.6,0.7-14.4,1.1v69.7c96,0,190.1-1,284.2,0.6c27.9,0.6,55.5,5.1,82.2,13.2c29.6,9,45.8,32.4,49.6,66.8h-24.6
	c-96.3,0-192.6-0.9-288.9,0.4c-45.7,0.6-91.2,10.1-115.2,54.4c-28.8,53.3-28.4,110.2,1.8,162.9c9.8,17.1,30,32.5,48.8,39.2
	c27.1,9.7,57.3,14.5,86.2,14.9c116.4,1.6,232.8,0.7,349.2,0.6c4.2,0,8.3-0.5,11.9-0.8c1.1-2.4,2.2-3.6,2.2-4.9
	C1799.4,409.6,1801.9,318.8,1797.7,228.2z M1728.6,433.5c-37.4,0-73.2,0-109,0c-64.7-0.1-129.3,0.1-194-0.6
	c-14.3-0.2-28.6-2.3-42.4-6.2c-17.3-4.9-27.7-17.4-28.7-36.3l-0.5-8.6c-3-55.8,11.8-75.3,67.3-76.3c100.5-2,201.2-0.6,301.7-0.6
	c1.3,0,2.6,0.9,5.6,2.1V433.5z"/>
<path class="st0" d="M1034.9,351c19.4,0,38.8-1.5,57.9-4.3c65-9.8,100-49.8,102.6-115.8c0.4-10.1,0.4-20.2,0-30.2
	c-2.9-67-36-106.9-102.8-114.5c-47.6-5.4-96.1-4.1-144.2-4c-43.8,0.1-87.9-0.6-131.2,4.8c-74.8,9.3-120.5,52.7-134.9,125.6
	c-11.4,57.7-11.2,116.1,2.7,173.6c12.8,53,45.1,90.7,98,104.9c33.3,8.8,67.4,13.6,101.8,14.4c91.3,1.9,182.6,0.7,273.9,0.6
	c6.2,0,12.4-0.6,18.7-0.9v-70.8h-24.2c-87.7,0-175.4,0.9-263.1-0.5c-29.1-0.5-59-3.9-87-11.6c-32.8-9-48.3-35.4-52.1-71h25
	C862.4,351.2,948.7,351.4,1034.9,351z M748.9,279.6c-9.8-73.1,26-122.5,95.3-125.9c73.8-3.5,147.9-2.9,221.7-0.5
	c50.9,1.7,78.3,58.7,48.9,100.6c-8.1,11.6-26.8,18.3-41.8,21.9c-17.8,4.3-37.1,3.6-55.7,3.7c-81.9,0.3-163.8,0.1-245.7,0.1
	L748.9,279.6L748.9,279.6z"/>
</svg>
