<svg id="Layer_1" data-name="Layer 1" xmlns="http://www.w3.org/2000/svg" width="432.64" height="467.14" viewBox="0 0 432.64 467.14"><defs><style>.cls-1{fill:#f2c5bb;}.cls-2{fill:#d0b0d9;}.cls-3{fill:#fff;}.cls-4{fill:#8fb58d;}.cls-5,.cls-8{fill:none;}.cls-6{fill:#775280;}.cls-7{fill:#ff7088;}.cls-8{stroke:#fff;stroke-miterlimit:10;stroke-width:3px;}</style></defs><g id="Layer_4" data-name="Layer 4"><path class="cls-1" d="M399.64,233A184.55,184.55,0,0,0,234.77,53a188.22,188.22,0,0,0-39.28,0q-4.56.48-9.05,1.19A183.84,183.84,0,0,0,92.07,99q-3.81,3.41-7.43,7h0l-.18.19A183.91,183.91,0,0,0,30.62,233v3.49C30.63,338.41,113.27,421,215.19,421S399.71,338.4,399.72,236.49C399.68,235.32,399.67,234.16,399.64,233ZM340.41,362.21l-97.63-97.63a39.25,39.25,0,0,0,11.77-28.09c0-1.18-.05-2.34-.15-3.49H392.58v3.49A176.92,176.92,0,0,1,340.41,362.21Z"/><polygon class="cls-2" points="349.14 370.94 308.4 405.66 254.55 424.31 215.13 427.32 215.13 236.93 242.78 264.58 340.41 362.21 345.4 367.2 349.14 370.94"/><polygon class="cls-2" points="215.13 45.91 215.13 236.93 84.41 106.21 118.9 73.59 215.13 45.91"/><path class="cls-1" d="M263.12,381.42a8.87,8.87,0,0,0-4.36,5.88.37.37,0,0,1-.45.27.36.36,0,0,1-.23-.17L222.8,323.87a.37.37,0,0,1,.44-.53,8.88,8.88,0,0,0,11.76-7,.36.36,0,0,1,.39-.32.27.27,0,0,1,.12,0,8.9,8.9,0,0,0,12.27-6.7.36.36,0,0,1,.43-.3l.08,0a8.9,8.9,0,0,0,11.61-4.86,9,9,0,0,0,.53-1.84,3.12,3.12,0,0,1,.69.13l35.4,63.75a.36.36,0,0,1-.13.49.35.35,0,0,1-.33,0,8.9,8.9,0,0,0-11.48,5.15,9.1,9.1,0,0,0-.46,1.68.36.36,0,0,1-.43.3l-.08,0a8.9,8.9,0,0,0-12.17,6.88.36.36,0,0,1-.4.31.2.2,0,0,1-.11,0A8.9,8.9,0,0,0,263.12,381.42Z"/><path class="cls-1" d="M175,170.32a8.87,8.87,0,0,0-4.36,5.87.37.37,0,0,1-.45.27.36.36,0,0,1-.23-.17l-35.28-63.53a.37.37,0,0,1,.44-.53,8.86,8.86,0,0,0,11.34-5.33,9.5,9.5,0,0,0,.42-1.67.36.36,0,0,1,.4-.31.2.2,0,0,1,.11,0,8.9,8.9,0,0,0,11.68-4.69,8.76,8.76,0,0,0,.59-2,.36.36,0,0,1,.4-.31.2.2,0,0,1,.11,0,8.9,8.9,0,0,0,11.61-4.86,9,9,0,0,0,.53-1.84,2,2,0,0,1,.69.12l35.4,63.75a.37.37,0,0,1-.15.5.37.37,0,0,1-.31,0,8.89,8.89,0,0,0-11.48,5.13,9,9,0,0,0-.46,1.69.36.36,0,0,1-.43.3l-.08,0a8.91,8.91,0,0,0-12.17,6.87.36.36,0,0,1-.38.32l-.13,0A8.87,8.87,0,0,0,175,170.32Z"/><polygon class="cls-2" points="81.81 367.01 47.09 326.27 28.44 272.42 25.43 233 215.82 233 81.81 367.01"/><polygon class="cls-2" points="406.83 233 215.81 233 241.56 207.25 339.23 109.58 344.22 104.59 346.53 102.28 379.15 136.77 406.83 233"/><path class="cls-3" d="M161.71,110.53l-.81.38.92,2-1.75.82-.92-2-2.29,1.08-1.07-2.26,6.75-3.17,2.05,4.36-1.8,1.1Z"/><path class="cls-3" d="M161.43,122.08h-.22l-1.11-2.37,1.54-2.42v-.11l-2.19,1L158.34,116l6.74-3.16,1.3,2.76c.89,1.9.53,3.17-1,3.89a2.14,2.14,0,0,1-2.33-.17Zm2.93-6.18-1.19.56.21.46c.22.48.56.61.94.43s.47-.53.25-1Z"/><path class="cls-3" d="M168.2,119.43l1.06,2.26-6.75,3.16-1.06-2.25Z"/><path class="cls-3" d="M165.45,124.52l1.35-.63,1.29,2.74-1.35.64Z"/><path class="cls-3" d="M164.6,129.32l6.75-3.17,1.26,2.69c.81,1.72.49,2.82-.59,3.34a1.66,1.66,0,0,1-2-.44h0a1.71,1.71,0,0,1-1,2.12c-1.21.57-2.31,0-3.19-1.83Zm2.79,1.44.16.36c.23.48.54.62.89.45s.43-.48.2-1l-.16-.36Zm2.41-1.13.14.31c.19.4.44.5.74.36s.4-.4.21-.81l-.15-.3Z"/><path class="cls-3" d="M174.27,132.36l1.06,2.26-6.75,3.17-1.06-2.26Z"/><path class="cls-3" d="M175.82,135.67l1.06,2.26-4.75,2.23,1.19,2.53-2.11.69-2.14-4.54Z"/><path class="cls-3" d="M178.41,141.18l1.06,2.26-4.75,2.23,1.19,2.53-2.12.69-2.13-4.54Z"/><path class="cls-3" d="M178,150.86l-.77.36,1.12,2.4-2,.69-2.09-4.45,6.75-3.17,2.09,4.45-1.8,1.09-1.12-2.39-.72.33,1,2.06-1.47.69Z"/><path class="cls-3" d="M186,157.36l-2.09,1-.78-1.65-4.65,2.18-1.06-2.25,4.66-2.18-.78-1.65,2.1-1Z"/><path class="cls-3" d="M271.4,368.65l.81-.38-.93-2,1.75-.82.92,2,2.3-1.08,1.07,2.26-6.76,3.17-2.05-4.36,1.8-1.1Z"/><path class="cls-3" d="M271.67,357.08h.22l1.12,2.37-1.55,2.43.05.1,2.2-1,1.06,2.26L268,366.38l-1.3-2.77c-.89-1.9-.53-3.18,1-3.9a2.14,2.14,0,0,1,2.34.18Zm-2.93,6.18,1.19-.56-.21-.46c-.23-.47-.56-.61-.94-.43s-.47.54-.25,1Z"/><path class="cls-3" d="M264.89,359.73l-1.06-2.26,6.76-3.17,1.06,2.26Z"/><path class="cls-3" d="M267.65,354.63l-1.36.63L265,352.51l1.36-.63Z"/><path class="cls-3" d="M268.49,349.83,261.73,353l-1.26-2.7c-.81-1.72-.49-2.83.6-3.34a1.62,1.62,0,0,1,2,.44h0a1.72,1.72,0,0,1,.95-2.12c1.21-.57,2.31,0,3.19,1.83Zm-5.2-.32-.15-.31c-.19-.4-.43-.5-.74-.36s-.39.4-.2.81l.14.3Zm2.41-1.14-.16-.35c-.23-.49-.54-.62-.89-.45s-.43.47-.2,1l.16.35Z"/><path class="cls-3" d="M258.81,346.77l-1.06-2.26,6.76-3.17,1.06,2.26Z"/><path class="cls-3" d="M257.26,343.46l-1.07-2.26L261,339l-1.19-2.53,2.12-.7,2.13,4.56Z"/><path class="cls-3" d="M254.67,337.94l-1.07-2.27,4.76-2.23-1.2-2.53,2.13-.7,2.13,4.56Z"/><path class="cls-3" d="M255.1,328.24l.77-.36-1.12-2.4,2-.69,2.09,4.46-6.75,3.17L250,328l1.81-1.09,1.12,2.39.72-.33-1-2.06,1.47-.69Z"/><path class="cls-3" d="M247.06,321.72l2.1-1,.77,1.65,4.66-2.19,1.06,2.26-4.65,2.2.77,1.65-2.1,1Z"/><path class="cls-4" d="M262.91,138.29c.15-2,.21-7.59.24-11.67a23.88,23.88,0,0,1,1.75-8.83l4-9.84h0a1,1,0,0,0,0-.69,1,1,0,0,0,.5-.49c.37-.91-.94-2.29-2.91-3.1s-3.88-.72-4.25.19a1.05,1.05,0,0,0,0,.7,1,1,0,0,0-.49.49h0l-3.38,8.3a32.51,32.51,0,0,1-6.62,10.22c-2.66,2.77-5.77,6.06-6.87,7.39-2.06,2.47-11.62,24.38-11.45,25.61l7.8,3.17,4.22,1.72,7.81,3.17C254.22,163.87,262.65,141.5,262.91,138.29Z"/><polyline class="cls-5" points="253.25 164.63 245.44 161.46 241.22 159.74 233.42 156.57"/><path class="cls-3" d="M236.33,144.56l.21-1.08,3.85-2c.68-.36,1-.65,1.11-1s0-.54-.4-.72a3.45,3.45,0,0,0-2.2,0h-.09l.51-2.51a7.57,7.57,0,0,1,3.2.38c1.85.75,2.39,2.2,1.79,3.68a3.79,3.79,0,0,1-2.36,2.28h-.12a7.09,7.09,0,0,1-1.21.28h0a6.06,6.06,0,0,1,1.69.35l.67.27-.93,2.28Z"/><path class="cls-3" d="M255.51,144.09a4.39,4.39,0,0,1,.11,3.73,4.47,4.47,0,0,1-5.8,2.48l-.2-.09a4.91,4.91,0,0,1-1.94-1.37l-.92.56-1.16-.47,1.52-.93a4.32,4.32,0,0,1-.14-3.7,4.42,4.42,0,0,1,5.7-2.53l.3.13a5.28,5.28,0,0,1,2,1.36l.91-.54,1.15.46Zm-6,2.43,3-1.84a1.64,1.64,0,0,0-.59-.39,1.75,1.75,0,0,0-2.26,1,.88.88,0,0,0,0,.15,2.2,2.2,0,0,0-.06,1.11Zm3.33.18a2.11,2.11,0,0,0,.16-1.11l-3,1.84a1.53,1.53,0,0,0,.58.39,1.76,1.76,0,0,0,2.27-1l0-.07Z"/><path class="cls-3" d="M258.23,144.29l2.63,1.07-2.25,5.53,3,1.21-1.24,2.21-5.3-2.15Z"/><path class="cls-4" d="M166.81,324.68c-.15,2-.21,7.59-.24,11.66a23.64,23.64,0,0,1-1.75,8.83l-4,9.84h0a.91.91,0,0,1-.5,1.19c-.36.9.94,2.29,2.92,3.09s3.87.72,4.24-.19a1,1,0,0,0,0-.69,1.1,1.1,0,0,0,.5-.5h0l3.37-8.3A32.48,32.48,0,0,1,178,339.39c2.66-2.77,5.77-6.06,6.87-7.38,2.06-2.48,11.63-24.39,11.45-25.62l-7.8-3.17-4.22-1.71-7.81-3.18C175.5,299.1,167.07,321.47,166.81,324.68Z"/><polyline class="cls-5" points="176.47 298.33 184.28 301.51 188.5 303.22 196.3 306.39"/><path class="cls-3" d="M193.39,318.4l-.21,1.08-3.85,2c-.67.36-1,.65-1.11.95s0,.55.4.72a3.48,3.48,0,0,0,2.21,0h.09l-.52,2.51a7.73,7.73,0,0,1-3.2-.38c-1.85-.75-2.39-2.2-1.79-3.68a3.8,3.8,0,0,1,2.36-2.27l.12-.05a7.43,7.43,0,0,1,1.22-.28h0a5.85,5.85,0,0,1-1.7-.35l-.67-.27.93-2.28Z"/><path class="cls-3" d="M174.22,318.87a4.33,4.33,0,0,1-.12-3.72,4.46,4.46,0,0,1,5.8-2.49l.2.09a4.91,4.91,0,0,1,1.94,1.37l.93-.55,1.15.47-1.51.92a4.5,4.5,0,0,1-5.58,6.23l-.29-.13a5.09,5.09,0,0,1-2-1.36l-.91.55-1.16-.47Zm2.62-2.61a2,2,0,0,0-.15,1.12l3-1.85a1.65,1.65,0,0,0-.58-.39,1.78,1.78,0,0,0-2.26,1.08Zm3.33.18-3,1.84a1.79,1.79,0,0,0,.59.39,1.75,1.75,0,0,0,2.26-1,.88.88,0,0,0,0-.15A2.21,2.21,0,0,0,180.17,316.44Z"/><path class="cls-3" d="M171.49,318.67l-2.63-1.07,2.25-5.53-3-1.2,1.24-2.22,5.3,2.15Z"/><path class="cls-3" d="M79,297.76l-3.6-7.68,2.68-1.26,2.35,1.49a17.33,17.33,0,0,1,1.89,1.35h0A15.3,15.3,0,0,1,81,289.42l-.76-1.63,2.56-1.2,3.61,7.69-2.51,1.17-2.53-1.52a19.58,19.58,0,0,1-1.94-1.33h0A15,15,0,0,1,80.8,295l.76,1.61Z"/><path class="cls-3" d="M84,286l2.57-1.21,3.61,7.69-2.57,1.2Z"/><path class="cls-3" d="M93.61,281.52l1.12,2.39-1.88.88,2.49,5.3-2.56,1.2L90.29,286l-1.88.89-1.12-2.39Z"/><path class="cls-3" d="M100.37,278.35l1.12,2.39-1.88.88,2.49,5.3-2.57,1.2-2.48-5.3-1.88.88-1.12-2.38Z"/><path class="cls-3" d="M105.83,281.46l.41.88,2.73-1.28.78,2.27-5.07,2.37-3.6-7.68,5.07-2.38,1.24,2.05L104.66,279l.38.82,2.35-1.11.79,1.68Z"/><path class="cls-3" d="M111,282.73l-3.61-7.68,2.68-1.26,2.36,1.49c.45.29.94.63,1.88,1.35h0a13.88,13.88,0,0,1-1.33-2.22l-.77-1.63,2.56-1.2,3.61,7.69-2.5,1.17-2.54-1.52a18.35,18.35,0,0,1-1.93-1.33h0a14.89,14.89,0,0,1,1.41,2.33l.75,1.61Z"/><path class="cls-3" d="M119.39,272.36a1.45,1.45,0,1,1,1.93.7,1.45,1.45,0,0,1-1.93-.7Zm1.54,3.27a1.45,1.45,0,1,1,1.8.65A1.45,1.45,0,0,1,120.93,275.63Z"/><path class="cls-3" d="M127.63,276.59a9.61,9.61,0,0,1-4.82-10.27l1.9-.89a9.3,9.3,0,0,0,4.82,10.27Z"/><path class="cls-3" d="M72.85,176l1-3.25A9.09,9.09,0,0,1,74.7,171h0a6.53,6.53,0,0,1-1.14.35l-.85.17-.18-.16,1-2.5,3.74-.46.92.28-2.6,8.24Z"/><path class="cls-3" d="M78,173.21c.84-2.66,2.69-3.86,4.88-3.17s3,2.74,2.17,5.39-2.69,3.86-4.87,3.17S77.17,175.86,78,173.21Zm4.27,1.34c.39-1.24.31-1.86-.18-2s-.91.3-1.31,1.55-.31,1.86.18,2S81.88,175.8,82.27,174.55Z"/><path class="cls-3" d="M86.73,173.78a2.34,2.34,0,1,1,1.56,2.92h0a2.27,2.27,0,0,1-1.57-2.8Zm.08,6.66,7.27-6.61,1.52.48-7.27,6.61Zm2.8-5.77a.68.68,0,0,0-.39-.87h0a.65.65,0,0,0-.83.42.14.14,0,0,0,0,.06.66.66,0,0,0,.36.85l.07,0a.65.65,0,0,0,.83-.42A.08.08,0,0,0,89.61,174.67Zm1.59,4.92a2.34,2.34,0,1,1,1.56,2.92h0a2.29,2.29,0,0,1-1.57-2.82Zm2.88.89a.66.66,0,0,0-.38-.85l0,0a.67.67,0,0,0-.85.43s0,0,0,0a.66.66,0,0,0,.38.85l0,0a.67.67,0,0,0,.85-.43S94.08,180.5,94.08,180.48Z"/><path class="cls-3" d="M106.37,186.38l-.16.18-2.85-.9-.84-3.15h-.12l-.83,2.63-2.71-.86,2.55-8.1,3.32,1c2.28.72,3.07,2,2.48,3.85a2.44,2.44,0,0,1-1.94,1.82Zm-2.91-7.23-.46,1.43.55.18c.58.18.94,0,1.09-.45s-.09-.81-.63-1Z"/><path class="cls-3" d="M114.59,180.3v8.85h-.07l-3-1,.09-1.13-2-.65-.57,1-3-.94v-.09l5.17-7.19Zm-4,4.51,1.23.39v-.53a25.52,25.52,0,0,1,.35-2.75h0a21.58,21.58,0,0,1-1.31,2.47Z"/><path class="cls-3" d="M115.22,189.41l2.56-8.1,3.22,1c2.07.65,2.75,1.77,2.34,3.08a1.86,1.86,0,0,1-1.88,1.3h0a2,2,0,0,1,1,2.43c-.46,1.45-1.74,2-4,1.25Zm3.37-1.22.42.14c.58.18.93,0,1.07-.4s-.08-.72-.66-.91l-.42-.13Zm.91-2.89.37.11c.48.16.75,0,.87-.34s0-.64-.52-.79l-.36-.11Z"/><path class="cls-3" d="M130.52,185.33v8.85h-.08l-3-1,.09-1.13-2-.65-.57,1-3-.94v-.09l5.17-7.19Zm-4,4.51,1.23.39v-.53a25.52,25.52,0,0,1,.35-2.75h0a21.58,21.58,0,0,1-1.31,2.47Z"/><path class="cls-3" d="M138.93,188l-.79,2.51-2-.62-1.76,5.58-2.7-.85,1.76-5.58-2-.63.8-2.51Z"/><path class="cls-3" d="M71.57,185c-.56,1.77-1.91,2.5-3.94,1.86l-.93-.29L66,189l-2.71-.85,2.55-8.1,3.32,1C71.39,181.77,72.17,183.11,71.57,185Zm-3.63-.29a.76.76,0,0,0,1.1-.52.8.8,0,0,0-.62-1.09l-.57-.18-.51,1.6Z"/><path class="cls-3" d="M78,183.86v8.84l-.08.05-3-.95.1-1.13L73,190l-.57,1-3-.94V190l5.17-7.2Zm-4,4.51,1.23.39v-.53a23.13,23.13,0,0,1,.35-2.76h0c-.39.84-.83,1.66-1.3,2.46Zm1.55-7.26a1.39,1.39,0,1,1,.9,1.73A1.39,1.39,0,0,1,75.55,181.11Zm.7.22a.65.65,0,0,0,.41.82h0a.66.66,0,0,0,.83-.43h0a.66.66,0,0,0-1.26-.4Z"/><path class="cls-3" d="M89.21,187.4l.06,8.84h-.08l-3-1,.09-1.13-2-.65-.57,1-3-.94v-.09l5.18-7.19Zm-4,4.51,1.22.38v-.53a25.52,25.52,0,0,1,.35-2.75h0a21.58,21.58,0,0,1-1.31,2.47Zm1.54-7.26a1.39,1.39,0,1,1,.93,1.73h0a1.39,1.39,0,0,1-1-1.7v0Zm.7.22a.66.66,0,1,0,1.24.44s0,0,0-.05a.67.67,0,0,0-.47-.81A.66.66,0,0,0,87.45,184.87Z"/><path class="cls-3" d="M97.36,198.63l-.16.19-2.85-.9-.84-3.16h-.13l-.83,2.63-2.71-.85,2.56-8.1,3.32,1c2.27.72,3.06,2,2.48,3.85a2.44,2.44,0,0,1-2,1.81Zm-2.92-7.22L94,192.84l.55.17c.57.18.94,0,1.08-.45s-.08-.8-.63-1Z"/><path class="cls-3" d="M97.62,198.5l1.12-2.24h.09a4.46,4.46,0,0,0,2,1.48c.53.16.77.13.83-.08s-.08-.42-1.23-1.4-1.59-1.94-1.19-3.21c.46-1.44,2-2.15,4.07-1.48a6.26,6.26,0,0,1,2.34,1.36l-1.12,2.24h-.09a4.16,4.16,0,0,0-1.9-1.35c-.37-.12-.51,0-.56.1s0,.29,1.19,1.33,1.63,2.07,1.28,3.16c-.49,1.56-2.18,2.26-4.18,1.63A6.68,6.68,0,0,1,97.62,198.5Z"/><path class="cls-3" d="M111.33,198.06l1.41,5.58-.07.06-3.08-1-.72-3.14-.9.55-.6,1.89-2.71-.86,2.56-8.09,2.71.85-.35,1.1c-.16.53-.49,1.36-.76,2h0a10.72,10.72,0,0,1,1.25-1.09l2-1.33,3.08,1v.1Z"/><path class="cls-3" d="M113.5,199.51a4.68,4.68,0,1,1,3.29,5.74l-.17-.05a4.43,4.43,0,0,1-3.21-5.38Zm6.1,1.93a1.72,1.72,0,1,0-2.21,1.3,1.75,1.75,0,0,0,2.18-1.18l0-.12Z"/><path class="cls-3" d="M129.7,208.84l-.16.19-2.85-.9-.84-3.16h-.13l-.83,2.63-2.71-.86,2.56-8.09,3.31,1c2.28.72,3.07,2,2.49,3.86a2.42,2.42,0,0,1-1.95,1.81Zm-2.92-7.22-.45,1.43.55.17c.57.18.94,0,1.08-.45s-.08-.81-.63-1Z"/><path class="cls-3" d="M138.62,203l-.8,2.51-2-.62-1.76,5.58-2.7-.85,1.76-5.58-2-.63.79-2.51Z"/></g><g id="Layer_3" data-name="Layer 3"><path class="cls-6" d="M234.77,39.63q-9.69-.95-19.64-1-9.7,0-19.19.92h-.45C95.49,49.4,17.32,133.77,17.32,236.4c0,109.25,88.56,197.81,197.81,197.81S412.94,345.65,412.94,236.4C412.94,133.87,334.8,49.49,234.77,39.63ZM37.68,233a177.48,177.48,0,0,1,354.9,0v3.49a177.5,177.5,0,0,1-355,0C37.64,235.32,37.65,234.16,37.68,233Z"/><path class="cls-1" d="M392.62,236.49a177,177,0,0,1-52.21,125.72l-97.63-97.63a39.25,39.25,0,0,0,11.77-28.09c0-1.18-.05-2.34-.15-3.49H392.58C392.61,234.16,392.62,235.32,392.62,236.49Z"/><path class="cls-6" d="M242.78,236.48a27.65,27.65,0,1,1-55.3,0h0a18,18,0,0,1,.11-2.44,27.65,27.65,0,0,1,55.09,0C242.75,234.84,242.78,235.66,242.78,236.48Z"/><rect class="cls-7" x="299.77" y="171.29" width="57.16" height="33.13" rx="5.39" transform="translate(-48.7 157.29) rotate(-25.14)"/><path class="cls-3" d="M309.86,192.63l5.08,5.45v.08l-2.41,1.13-.59-.75-1.64.77.21.93-2.38,1.11h-.07l-.9-7.41Zm-3.11-.28a1.17,1.17,0,1,1,1.56.54h0a1.17,1.17,0,0,1-1.55-.54Zm3.18,5.38,1-.46-.27-.35A19.48,19.48,0,0,1,309.3,195h0c.27.83.5,1.83.6,2.27Zm-2.62-5.64a.55.55,0,1,0,.26-.74.55.55,0,0,0-.26.74Z"/><path class="cls-3" d="M321.32,194.94v.21l-2.27,1.07-2.33-1.48h-.1l1,2.1-2.17,1-3-6.47,2.66-1.25c1.82-.85,3-.51,3.73,1a2,2,0,0,1-.17,2.23Zm-5.93-2.81.53,1.15.44-.21c.46-.21.59-.53.42-.9s-.51-.45-.95-.24Z"/><path class="cls-3" d="M321.4,194.71l-.58-2h.07a3.65,3.65,0,0,0,2.09-.23c.42-.2.54-.36.47-.52s-.29-.21-1.56-.16a2.35,2.35,0,0,1-2.57-1.32c-.47-1,0-2.45,1.67-3.24a5.37,5.37,0,0,1,2.23-.49l.59,2h-.08a3.52,3.52,0,0,0-2,.25c-.3.14-.34.26-.29.38s.16.19,1.5.14a2.45,2.45,0,0,1,2.6,1.23c.59,1.25-.06,2.65-1.67,3.4A5.42,5.42,0,0,1,321.4,194.71Z"/><path class="cls-3" d="M329.64,186.62l4.06,2.65v.08l-2.46,1.15L329,189l-.24.87.7,1.51-2.16,1-3-6.47,2.17-1,.41.88c.19.42.47,1.12.66,1.66h0a8.11,8.11,0,0,1,.16-1.39l.45-1.95,2.47-1.15h.06Z"/><path class="cls-3" d="M331.81,186.28a3.95,3.95,0,1,1,5.34,1.65L337,188a3.74,3.74,0,0,1-5.07-1.47Zm4.88-2.29a1.46,1.46,0,0,0-2.78.88,1.23,1.23,0,0,0,.16.35,1.46,1.46,0,0,0,2.78-.88A1.23,1.23,0,0,0,336.69,184Z"/><path class="cls-3" d="M347.16,182.81V183l-2.28,1.07-2.32-1.48h-.1l1,2.1-2.17,1-3-6.48,2.65-1.24c1.82-.85,3-.51,3.74,1a2.05,2.05,0,0,1-.17,2.23ZM341.23,180l.54,1.15.44-.21c.46-.21.59-.53.42-.9s-.52-.45-1-.24Z"/><path class="cls-3" d="M349.34,174.1l1,2-1.58.74,2.09,4.47-2.16,1-2.09-4.46-1.58.74-1-2Z"/><path class="cls-3" d="M289.29,265.43l.12-1.1,3.67-2.32c.65-.41.94-.73,1-1s0-.55-.45-.69a3.4,3.4,0,0,0-2.2.2h-.09l.31-2.54a7.6,7.6,0,0,1,3.22.12c1.91.6,2.56,2,2.08,3.53a3.8,3.8,0,0,1-2.17,2.46l-.12.05a7,7,0,0,1-1.18.37v.05a5.57,5.57,0,0,1,1.72.22l.69.22-.74,2.34Z"/><path class="cls-3" d="M297.27,263.49c.84-2.65,2.69-3.85,4.87-3.16s3,2.73,2.18,5.39-2.69,3.85-4.88,3.16S296.43,266.15,297.27,263.49Zm4.27,1.35c.39-1.25.31-1.86-.18-2s-.91.3-1.31,1.55-.31,1.86.18,2,.92-.3,1.31-1.55Z"/><path class="cls-3" d="M306,264.06a2.34,2.34,0,1,1,1.56,2.92h0a2.27,2.27,0,0,1-1.57-2.8Zm.08,6.66,7.26-6.61,1.52.48-7.26,6.61Zm2.8-5.76a.68.68,0,0,0-.39-.87h0a.65.65,0,0,0-.83.42.08.08,0,0,0,0,.05.66.66,0,0,0,.36.86l.06,0a.67.67,0,0,0,.86-.43Zm1.59,4.91a2.34,2.34,0,1,1,1.56,2.92h0a2.26,2.26,0,0,1-1.56-2.8l0-.11Zm2.87.9a.67.67,0,1,0-.85.47.65.65,0,0,0,.83-.42.08.08,0,0,0,0-.05Z"/><path class="cls-3" d="M325.64,276.66l-.16.19-2.85-.9-.84-3.16h-.12l-.83,2.63-2.72-.85,2.56-8.1,3.32,1c2.27.72,3.06,2,2.48,3.85a2.44,2.44,0,0,1-1.94,1.81Zm-2.92-7.22-.45,1.43.55.17c.57.18.94,0,1.09-.45s-.09-.8-.64-1Z"/><path class="cls-3" d="M333.86,270.59l.05,8.85-.08.05-3-1,.1-1.13-2.05-.64-.57,1-3-.93v-.09l5.17-7.2Zm-4,4.51,1.23.39V275a23.13,23.13,0,0,1,.35-2.76h-.05a21.78,21.78,0,0,1-1.3,2.47Z"/><path class="cls-3" d="M334.49,279.69,337,271.6l3.23,1c2.07.66,2.75,1.78,2.34,3.08a1.84,1.84,0,0,1-1.89,1.3v0a2,2,0,0,1,1,2.43c-.46,1.45-1.74,2-4,1.26Zm3.36-1.21.43.13c.58.19.93,0,1.06-.39s-.07-.73-.65-.91l-.42-.14Zm.92-2.9.36.12c.48.15.76,0,.88-.34s0-.64-.52-.79l-.37-.12Z"/><path class="cls-3" d="M349.79,275.62v8.84l-.08.05-3-.95.09-1.13-2-.64-.57,1-3-.94v-.08l5.17-7.2Zm-4,4.51,1.23.38V280a23.13,23.13,0,0,1,.35-2.76h-.05c-.39.84-.83,1.66-1.3,2.46Z"/><path class="cls-3" d="M358.2,278.27l-.79,2.52-2-.63-1.76,5.59-2.7-.86,1.76-5.58-2-.62.79-2.52Z"/><path class="cls-3" d="M290.3,275.13c-.56,1.78-1.91,2.51-3.94,1.87l-.94-.3-.74,2.37-2.71-.86,2.55-8.09,3.32,1C290.12,271.88,290.9,273.22,290.3,275.13Zm-3.63-.29a.76.76,0,0,0,1.1-.51.79.79,0,0,0-.62-1.1l-.57-.18-.51,1.61Z"/><path class="cls-3" d="M296.74,274l.05,8.85-.08,0-3-.95.1-1.13-2.05-.65-.57,1-3-.94v-.09l5.17-7.19Zm-4,4.51,1.23.39v-.53a23.23,23.23,0,0,1,.35-2.75h-.05a21.78,21.78,0,0,1-1.3,2.47Zm1.55-7.25a1.39,1.39,0,1,1,.92,1.73h0a1.37,1.37,0,0,1-1-1.67l0-.09Zm.7.22a.65.65,0,0,0,.4.81h0a.66.66,0,1,0-.43-.83Z"/><path class="cls-3" d="M307.94,277.51l.06,8.85-.08.05-3-1,.09-1.13-2.05-.64-.57,1-3-.93v-.09l5.18-7.2Zm-4,4.51,1.22.39v-.53a25.38,25.38,0,0,1,.35-2.76h0a21.58,21.58,0,0,1-1.31,2.47Zm1.54-7.26a1.38,1.38,0,0,1,1.73-.9h0a1.38,1.38,0,0,1,.92,1.71v0a1.39,1.39,0,0,1-2.66-.84Zm.7.22a.66.66,0,1,0,.83-.43.65.65,0,0,0-.84.38s0,.05,0,.07Z"/><path class="cls-3" d="M316.09,288.75l-.16.18-2.85-.89-.84-3.16h-.13l-.83,2.63-2.71-.86,2.56-8.09,3.32,1c2.27.72,3.06,2,2.48,3.85a2.45,2.45,0,0,1-1.95,1.82Zm-2.92-7.23-.45,1.43.55.18c.57.18.94,0,1.08-.45s-.08-.81-.63-1Z"/><path class="cls-3" d="M316.35,288.61l1.12-2.23h.09a4.44,4.44,0,0,0,2,1.47c.53.17.76.13.83-.08s-.08-.41-1.23-1.39-1.59-2-1.19-3.22c.46-1.44,2-2.14,4.07-1.48a6.29,6.29,0,0,1,2.34,1.37l-1.12,2.24h-.09a4.18,4.18,0,0,0-1.9-1.36c-.37-.12-.51-.05-.56.1s0,.3,1.19,1.34,1.62,2.07,1.28,3.15c-.49,1.57-2.18,2.27-4.19,1.64A6.78,6.78,0,0,1,316.35,288.61Z"/><path class="cls-3" d="M330.06,288.18l1.41,5.57-.07.07-3.08-1-.72-3.15-.9.56-.6,1.89-2.71-.86,2.56-8.1,2.71.86-.35,1.1c-.16.52-.49,1.35-.76,2h0A9.3,9.3,0,0,1,328.8,286l2-1.33,3.08,1v.09Z"/><path class="cls-3" d="M332.23,289.63a4.68,4.68,0,1,1,2.95,5.68A4.68,4.68,0,0,1,332.23,289.63Zm6.1,1.92a1.72,1.72,0,0,0-3.16-1.36,1.65,1.65,0,0,0-.11.36,1.72,1.72,0,0,0,3.16,1.36A1.65,1.65,0,0,0,338.33,291.55Z"/><path class="cls-3" d="M348.43,299l-.16.19-2.85-.9-.84-3.16h-.13l-.83,2.64-2.71-.86,2.56-8.1,3.31,1c2.28.72,3.07,2,2.49,3.85a2.45,2.45,0,0,1-1.95,1.82Zm-2.92-7.22-.45,1.43.55.17c.57.19.94,0,1.08-.45s-.08-.8-.63-1Z"/><path class="cls-3" d="M357.34,293.1l-.79,2.52-2-.63-1.76,5.59-2.7-.86,1.76-5.58-2-.62.79-2.52Z"/><path class="cls-8" d="M226,226.22c-6.21-6.49-13.23-6.56-19.14-2.57-8.52,5.75-6.48,19.57.35,24.22,6.26,4.26,18.23.25,19.32-5,.76-3.63-2.94-4.69-4.8-4.07-1.6.53-8,2.81-5.91,16"/></g></svg>